<svg xmlns="http://www.w3.org/2000/svg" viewBox="0 0 2000 1125" role="img" aria-labelledby="title desc">
  <title id="title">Lanterns over river town in Vietnam at sunset</title>
  <desc id="desc">Stylized landscape with warm sky, river reflections, lanterns, and old town silhouettes.</desc>
  <defs>
    <linearGradient id="sky" x1="0" y1="0" x2="0" y2="1">
      <stop offset="0%" stop-color="#ffe0a3"/>
      <stop offset="40%" stop-color="#ffb870"/>
      <stop offset="100%" stop-color="#ff8b5d"/>
    </linearGradient>
    <linearGradient id="water" x1="0" y1="0" x2="0" y2="1">
      <stop offset="0%" stop-color="#65c9c9"/>
      <stop offset="100%" stop-color="#2d7f8c"/>
    </linearGradient>
  </defs>
  <rect width="2000" height="650" fill="url(#sky)"/>
  <rect y="650" width="2000" height="475" fill="url(#water)"/>
  <circle cx="1600" cy="210" r="95" fill="#ffe7b0" opacity="0.8"/>
  <g fill="#3b4f5c" opacity="0.9">
    <rect x="130" y="430" width="130" height="220"/>
    <rect x="280" y="380" width="180" height="270"/>
    <rect x="490" y="410" width="150" height="240"/>
    <rect x="660" y="360" width="120" height="290"/>
    <rect x="810" y="390" width="170" height="260"/>
    <rect x="1020" y="350" width="140" height="300"/>
    <rect x="1180" y="420" width="170" height="230"/>
  </g>
  <g>
    <circle cx="420" cy="260" r="22" fill="#ffd85a"/>
    <circle cx="620" cy="220" r="16" fill="#ffe27c"/>
    <circle cx="780" cy="270" r="20" fill="#ffd85a"/>
    <circle cx="980" cy="230" r="18" fill="#ffe27c"/>
  </g>
  <g opacity="0.28" fill="#ffecc0">
    <ellipse cx="420" cy="790" rx="80" ry="16"/>
    <ellipse cx="780" cy="820" rx="95" ry="18"/>
    <ellipse cx="980" cy="760" rx="90" ry="14"/>
    <ellipse cx="1600" cy="780" rx="220" ry="22"/>
  </g>
  <path d="M0 735 C180 690 280 760 470 725 C720 675 840 770 1090 730 C1300 700 1480 745 2000 690 L2000 1125 L0 1125 Z" fill="#1f6674" opacity="0.44"/>
</svg>
