<svg xmlns="http://www.w3.org/2000/svg" viewBox="0 0 96 96" role="img" aria-labelledby="title desc">
  <title id="title">Local Experiences</title>
  <desc id="desc">Thin outline pictogram of a local boat on water.</desc>
  <g fill="none" stroke="#3f5356" stroke-width="2.6" stroke-linecap="round" stroke-linejoin="round">
    <path d="M48 18v7" />
    <path d="M40 25h16l4 10H36l4-10Z" />
    <path d="M35 35h26v19L48 68 35 54V35Z" />
    <path d="M43 44h10" />
    <path d="M48 35v33" />
    <path d="M38 55h20" />
    <path d="M21 74c5-4 10-4 15 0s10 4 15 0 10-4 15 0 10 4 15 0" />
    <path d="M18 83c5-4 10-4 15 0s10 4 15 0 10-4 15 0" />
  </g>
</svg>
