<svg xmlns="http://www.w3.org/2000/svg" viewBox="0 0 96 96" role="img" aria-labelledby="title desc">
  <title id="title">Delicious Cuisine</title>
  <desc id="desc">Thin outline pictogram of a bowl with chopsticks.</desc>
  <g fill="none" stroke="#3f5356" stroke-width="2.6" stroke-linecap="round" stroke-linejoin="round">
    <path d="M24 50h48" />
    <path d="M27 50c1 15 10 25 21 25s20-10 21-25" />
    <path d="M34 75h28" />
    <path d="M66 17 53 50" />
    <path d="M77 22 59 50" />
    <path d="M34 42c4-3 8-3 12 0" />
    <path d="M48 40c4-3 8-3 12 0" />
    <path d="M34 58c5 5 10 7 17 7s12-2 17-7" />
    <path d="M36 32c-3 3-2 6 2 8" />
    <path d="M48 29c-3 3-2 6 2 8" />
  </g>
</svg>
