<svg xmlns="http://www.w3.org/2000/svg" viewBox="0 0 96 96" role="img" aria-labelledby="title desc">
  <title id="title">Nature and Wildlife</title>
  <desc id="desc">Thin outline pictogram of a bird.</desc>
  <g fill="none" stroke="#3f5356" stroke-width="2.6" stroke-linecap="round" stroke-linejoin="round">
    <path d="M25 54c6-13 18-21 31-18 12 3 19 13 17 25-9 9-26 10-38 2-5-3-8-6-10-9Z" />
    <circle cx="65" cy="37" r="8" />
    <path d="M73 37h11l-9 7" />
    <path d="M31 54 18 45l16-2" />
    <path d="M42 53c8 1 15 7 18 17-10-1-18-6-23-14" />
    <circle cx="67" cy="35" r="1" />
    <path d="M48 70v9" />
    <path d="M57 70v9" />
    <path d="M43 79h9" />
    <path d="M53 79h9" />
  </g>
</svg>
