<svg xmlns="http://www.w3.org/2000/svg" viewBox="0 0 96 96" role="img" aria-labelledby="title desc">
  <title id="title">Traditional Markets</title>
  <desc id="desc">Thin outline pictogram of a traditional market stall.</desc>
  <g fill="none" stroke="#3f5356" stroke-width="2.6" stroke-linecap="round" stroke-linejoin="round">
    <path d="M21 38h54l-5-16H26l-5 16Z" />
    <path d="M23 38c0 5 4 8 8 8s8-3 8-8" />
    <path d="M39 38c0 5 4 8 9 8s9-3 9-8" />
    <path d="M57 38c0 5 4 8 8 8s8-3 8-8" />
    <path d="M27 46v32" />
    <path d="M69 46v32" />
    <path d="M21 78h54" />
    <path d="M35 64h15v14H35z" />
    <path d="M55 68h12v10H55z" />
    <path d="M38 64c0-4 2-7 5-7s5 3 5 7" />
    <path d="M32 22l-3 16" />
    <path d="M46 22l-1 16" />
    <path d="M60 22l2 16" />
  </g>
</svg>
