<svg xmlns="http://www.w3.org/2000/svg" viewBox="0 0 96 96" role="img" aria-labelledby="title desc">
  <title id="title">Outdoor Adventures</title>
  <desc id="desc">Thin outline pictogram of a compass and backpack.</desc>
  <g fill="none" stroke="#3f5356" stroke-width="2.6" stroke-linecap="round" stroke-linejoin="round">
    <path d="M29 79V38c0-9 7-15 15-15h8c8 0 15 6 15 15v41H29Z" />
    <path d="M39 23v-4c0-5 4-8 9-8s9 3 9 8v4" />
    <path d="M29 46h38" />
    <path d="M38 58h20v21H38z" />
    <path d="M25 46c-5 4-7 12-5 20" />
    <path d="M71 46c5 4 7 12 5 20" />
    <circle cx="48" cy="34" r="7" />
    <path d="M51 31 45 37" />
    <path d="M42 69h12" />
  </g>
</svg>
