<svg xmlns="http://www.w3.org/2000/svg" viewBox="0 0 96 96" role="img" aria-labelledby="title desc">
  <title id="title">Spiritual Places</title>
  <desc id="desc">Thin outline pictogram of a quiet temple with incense.</desc>
  <g fill="none" stroke="#3f5356" stroke-width="2.6" stroke-linecap="round" stroke-linejoin="round">
    <path d="M20 78h56" />
    <path d="M25 78V50h46v28" />
    <path d="M21 50 48 29l27 21" />
    <path d="M29 44 48 19l19 25" />
    <path d="M40 78V61h16v17" />
    <path d="M35 56h26" />
    <path d="M48 19v-7" />
    <path d="M41 12h14" />
    <path d="M29 31c-5-4-5-9 0-13" />
    <path d="M67 31c5-4 5-9 0-13" />
    <path d="M33 78c0-7 3-13 7-17" />
    <path d="M63 78c0-7-3-13-7-17" />
  </g>
</svg>
