<svg xmlns="http://www.w3.org/2000/svg" viewBox="0 0 96 96" role="img" aria-labelledby="title desc">
  <title id="title">Shopping and Souvenirs</title>
  <desc id="desc">Thin outline pictogram of a shopping bag and wrapped souvenir gift.</desc>
  <g fill="none" stroke="#3f5356" stroke-width="2.6" stroke-linecap="round" stroke-linejoin="round">
    <path d="M25 34h33l5 45H20l5-45Z" />
    <path d="M33 34c0-9 4-15 9-15s9 6 9 15" />
    <path d="M37 57h37v22H37z" />
    <path d="M56 57v22" />
    <path d="M37 66h37" />
    <path d="M50 57c-7-5-9-11-4-14 5-3 9 3 10 14" />
    <path d="M62 57c7-5 9-11 4-14-5-3-9 3-10 14" />
    <path d="M29 47h11" />
    <path d="M25 79h55" />
  </g>
</svg>
