<svg xmlns="http://www.w3.org/2000/svg" viewBox="0 0 96 96" role="img" aria-labelledby="title desc">
  <title id="title">Beaches and Islands</title>
  <desc id="desc">Thin outline pictogram of a palm island, sun, and waves.</desc>
  <g fill="none" stroke="#3f5356" stroke-width="2.6" stroke-linecap="round" stroke-linejoin="round">
    <circle cx="72" cy="22" r="7" />
    <path d="M49 75c3-15 3-30 1-44" />
    <path d="M50 32c-9-8-18-10-26-5 9 1 17 4 26 12" />
    <path d="M51 32c8-10 17-13 27-9-9 3-17 8-27 17" />
    <path d="M50 36c-8 2-14 7-17 16 8-2 14-7 17-16Z" />
    <path d="M51 36c9 2 16 7 20 16-9-2-16-7-20-16Z" />
    <path d="M22 76c7-5 14-5 21 0s14 5 21 0 10-4 15-1" />
    <path d="M18 84c6-4 12-4 18 0s12 4 18 0 12-4 18 0" />
  </g>
</svg>
