<svg xmlns="http://www.w3.org/2000/svg" viewBox="0 0 96 96" role="img" aria-labelledby="title desc">
  <title id="title">Family Friendly Activities</title>
  <desc id="desc">Thin outline pictogram of a family with a kite.</desc>
  <g fill="none" stroke="#3f5356" stroke-width="2.6" stroke-linecap="round" stroke-linejoin="round">
    <circle cx="31" cy="32" r="6" />
    <circle cx="52" cy="36" r="5" />
    <circle cx="43" cy="53" r="5" />
    <path d="M21 73c1-13 6-21 15-21 7 0 11 4 13 12" />
    <path d="M45 73c1-11 5-17 13-17 7 0 11 6 12 17" />
    <path d="M33 73c1-8 4-12 10-12s9 4 10 12" />
    <path d="M67 23 78 13l8 14-14 8-5-12Z" />
    <path d="M72 35c-11 8-17 18-18 27" />
    <path d="M78 13l-6 22" />
    <path d="M67 23l19 4" />
  </g>
</svg>
