<svg xmlns="http://www.w3.org/2000/svg" viewBox="0 0 96 96" role="img" aria-labelledby="title desc">
  <title id="title">Wellness and Relaxation</title>
  <desc id="desc">Thin outline pictogram of a lotus flower above spa stones.</desc>
  <g fill="none" stroke="#3f5356" stroke-width="2.6" stroke-linecap="round" stroke-linejoin="round">
    <path d="M48 49c-8-8-8-18 0-28 8 10 8 20 0 28Z" />
    <path d="M46 50c-12-2-20-9-23-23 13 2 21 10 23 23Z" />
    <path d="M50 50c12-2 20-9 23-23-13 2-21 10-23 23Z" />
    <path d="M36 54c-9 0-16-4-21-13 12-2 21 2 28 11" />
    <path d="M60 54c9 0 16-4 21-13-12-2-21 2-28 11" />
    <path d="M31 73c0-5 4-8 17-8s17 3 17 8-4 8-17 8-17-3-17-8Z" />
    <path d="M37 61c0-4 5-7 11-7s11 3 11 7" />
    <path d="M40 73h16" />
  </g>
</svg>
